<svg width="27" height="27" viewBox="0 0 27 27" fill="none" xmlns="http://www.w3.org/2000/svg">
<path d="M16.8511 16.5987C16.8511 16.5987 17.067 16.3829 17.4987 15.9511C17.9304 15.5194 18.1463 14.6934 18.1463 13.4731C18.1463 12.2527 17.7146 11.2108 16.8511 10.3474C15.9877 9.48393 14.9458 9.05221 13.7254 9.05221C12.5051 9.05221 11.4632 9.48393 10.5998 10.3474C9.73631 11.2108 9.30458 12.2527 9.30458 13.4731C9.30458 14.6934 9.73631 15.7353 10.5998 16.5987C11.4632 17.4622 12.5051 17.8939 13.7254 17.8939C14.9458 17.8939 15.9877 17.4622 16.8511 16.5987ZM18.5435 8.65502C18.5435 8.65502 18.8745 8.98601 19.5364 9.64799C20.1984 10.31 20.5294 11.585 20.5294 13.4731C20.5294 15.3611 19.8674 16.9671 18.5435 18.2911C17.2195 19.615 15.6135 20.277 13.7254 20.277C11.8374 20.277 10.2314 19.615 8.9074 18.2911C7.58345 16.9671 6.92147 15.3611 6.92147 13.4731C6.92147 11.585 7.58345 9.97897 8.9074 8.65502C10.2314 7.33107 11.8374 6.6691 13.7254 6.6691C15.6135 6.6691 17.2195 7.33107 18.5435 8.65502ZM21.9282 5.27031C21.9282 5.27031 22.0059 5.34802 22.1613 5.50344C22.3167 5.65886 22.3944 5.95531 22.3944 6.39279C22.3944 6.83027 22.239 7.20443 21.9282 7.51527C21.6173 7.82611 21.2432 7.98153 20.8057 7.98153C20.3682 7.98153 19.9941 7.82611 19.6832 7.51527C19.3724 7.20443 19.217 6.83027 19.217 6.39279C19.217 5.95531 19.3724 5.58115 19.6832 5.27031C19.9941 4.95947 20.3682 4.80405 20.8057 4.80405C21.2432 4.80405 21.6173 4.95947 21.9282 5.27031ZM15.0465 2.58499C15.0465 2.58499 14.8465 2.58643 14.4464 2.58931C14.0463 2.59219 13.806 2.59363 13.7254 2.59363C13.6448 2.59363 13.2045 2.59075 12.4044 2.58499C11.6042 2.57924 10.9969 2.57924 10.5825 2.58499C10.168 2.59075 9.61255 2.60802 8.91603 2.6368C8.21952 2.66558 7.62662 2.72314 7.13733 2.80949C6.64805 2.89583 6.23647 3.00233 5.9026 3.12896C5.32697 3.35922 4.82042 3.69308 4.38294 4.13056C3.94546 4.56804 3.61159 5.0746 3.38134 5.65023C3.2547 5.98409 3.14821 6.39567 3.06187 6.88496C2.97552 7.37424 2.91796 7.96714 2.88918 8.66366C2.86039 9.36017 2.84313 9.91566 2.83737 10.3301C2.83161 10.7446 2.83161 11.3519 2.83737 12.152C2.84313 12.9521 2.846 13.3925 2.846 13.4731C2.846 13.5536 2.84313 13.994 2.83737 14.7941C2.83161 15.5943 2.83161 16.2015 2.83737 16.616C2.84313 17.0305 2.86039 17.5859 2.88918 18.2825C2.91796 18.979 2.97552 19.5719 3.06187 20.0612C3.14821 20.5504 3.2547 20.962 3.38134 21.2959C3.61159 21.8715 3.94546 22.3781 4.38294 22.8155C4.82042 23.253 5.32697 23.5869 5.9026 23.8171C6.23647 23.9438 6.64805 24.0503 7.13733 24.1366C7.62662 24.223 8.21952 24.2805 8.91603 24.3093C9.61255 24.3381 10.168 24.3554 10.5825 24.3611C10.9969 24.3669 11.6042 24.3669 12.4044 24.3611C13.2045 24.3554 13.6448 24.3525 13.7254 24.3525C13.806 24.3525 14.2464 24.3554 15.0465 24.3611C15.8466 24.3669 16.4539 24.3669 16.8684 24.3611C17.2828 24.3554 17.8383 24.3381 18.5348 24.3093C19.2313 24.2805 19.8242 24.223 20.3135 24.1366C20.8028 24.0503 21.2144 23.9438 21.5483 23.8171C22.1239 23.5869 22.6304 23.253 23.0679 22.8155C23.5054 22.3781 23.8393 21.8715 24.0695 21.2959C24.1962 20.962 24.3027 20.5504 24.389 20.0612C24.4753 19.5719 24.5329 18.979 24.5617 18.2825C24.5905 17.5859 24.6077 17.0305 24.6135 16.616C24.6192 16.2015 24.6192 15.5943 24.6135 14.7941C24.6077 13.994 24.6049 13.5536 24.6049 13.4731C24.6049 13.3925 24.6077 12.9521 24.6135 12.152C24.6192 11.3519 24.6192 10.7446 24.6135 10.3301C24.6077 9.91566 24.5905 9.36017 24.5617 8.66366C24.5329 7.96714 24.4753 7.37424 24.389 6.88496C24.3027 6.39567 24.1962 5.98409 24.0695 5.65023C23.8393 5.0746 23.5054 4.56804 23.0679 4.13056C22.6304 3.69308 22.1239 3.35922 21.5483 3.12896C21.2144 3.00233 20.8028 2.89583 20.3135 2.80949C19.8242 2.72314 19.2313 2.66558 18.5348 2.6368C17.8383 2.60802 17.2828 2.59075 16.8684 2.58499C16.4539 2.57924 15.8466 2.57924 15.0465 2.58499ZM26.9016 7.9988C26.9592 9.01191 26.988 10.8367 26.988 13.4731C26.988 16.1094 26.9592 17.9342 26.9016 18.9473C26.7865 21.3419 26.0727 23.1955 24.7603 24.5079C23.4478 25.8203 21.5943 26.5341 19.1997 26.6493C18.1866 26.7068 16.3618 26.7356 13.7254 26.7356C11.089 26.7356 9.26429 26.7068 8.25118 26.6493C5.85655 26.5341 4.00302 25.8203 2.69058 24.5079C1.37814 23.1955 0.664362 21.3419 0.549235 18.9473C0.491672 17.9342 0.462891 16.1094 0.462891 13.4731C0.462891 10.8367 0.491672 9.01191 0.549235 7.9988C0.664362 5.60418 1.37814 3.75064 2.69058 2.43821C4.00302 1.12577 5.85655 0.411985 8.25118 0.296858C9.26429 0.239296 11.089 0.210514 13.7254 0.210514C16.3618 0.210514 18.1866 0.239296 19.1997 0.296858C21.5943 0.411985 23.4478 1.12577 24.7603 2.43821C26.0727 3.75064 26.7865 5.60418 26.9016 7.9988Z" fill="#3286C8"/>
</svg>
