<svg width="30" height="31" viewBox="0 0 30 31" fill="none" xmlns="http://www.w3.org/2000/svg">
<g clip-path="url(#clip0_469_294)">
<path d="M27.9287 7.04579C27.1574 8.17403 26.2249 9.13533 25.1312 9.9297C25.1427 10.0909 25.1484 10.3326 25.1484 10.655C25.1484 12.1516 24.9297 13.6454 24.4922 15.1363C24.0547 16.6272 23.3899 18.0576 22.4976 19.4276C21.6054 20.7976 20.5434 22.0093 19.3115 23.0627C18.0797 24.1161 16.5946 24.9566 14.8561 25.584C13.1177 26.2114 11.2585 26.5251 9.27828 26.5251C6.15836 26.5251 3.30323 25.6905 0.712891 24.0212C1.11583 24.0672 1.56482 24.0902 2.05987 24.0902C4.65021 24.0902 6.95849 23.2959 8.98471 21.7071C7.77588 21.6841 6.6937 21.3128 5.73815 20.5933C4.7826 19.8737 4.12638 18.9556 3.76949 17.8389C4.14941 17.8964 4.50054 17.9252 4.8229 17.9252C5.31794 17.9252 5.80723 17.8619 6.29076 17.7353C5.00134 17.4705 3.93355 16.8286 3.08737 15.8098C2.24119 14.7909 1.8181 13.608 1.8181 12.261V12.1919C2.60096 12.6294 3.44138 12.8654 4.33937 12.9C3.57953 12.3934 2.97512 11.7314 2.52613 10.914C2.07714 10.0966 1.85264 9.21016 1.85264 8.25462C1.85264 7.2415 2.10592 6.30323 2.61247 5.43978C4.0055 7.15516 5.70073 8.52804 7.69817 9.55842C9.69561 10.5888 11.8341 11.1616 14.1136 11.2767C14.0215 10.8392 13.9754 10.4132 13.9754 9.99878C13.9754 8.45609 14.5194 7.14077 15.6073 6.05283C16.6953 4.96488 18.0106 4.42091 19.5533 4.42091C21.1651 4.42091 22.5236 5.00805 23.6288 6.18234C24.8836 5.94058 26.0637 5.49158 27.1689 4.83537C26.7429 6.15932 25.9255 7.18394 24.7167 7.90924C25.7874 7.79411 26.8581 7.50629 27.9287 7.04579Z" fill="#3286C8"/>
</g>
<defs>
<clipPath id="clip0_469_294">
<rect width="28.7591" height="30.9459" fill="white" transform="matrix(1 0 0 -1 0.701172 30.946)"/>
</clipPath>
</defs>
</svg>
